<svg width="958" height="1012" viewBox="0 0 958 1012" fill="none" xmlns="http://www.w3.org/2000/svg">
<path d="M445.6 76.3C198.3 76.2 -2 276.4 -2 523.5C-2 718.9 123.3 885 297.8 946C321.3 951.9 317.7 935.2 317.7 923.8V846.3C182 862.2 176.5 772.4 167.4 757.4C149 726 105.5 718 118.5 703C149.4 687.1 180.9 707 217.4 760.9C243.8 800 295.3 793.4 321.4 786.9C327.1 763.4 339.3 742.4 356.1 726.1C215.5 700.9 156.9 615.1 156.9 513.1C156.9 463.6 173.2 418.1 205.2 381.4C184.8 320.9 207.1 269.1 210.1 261.4C268.2 256.2 328.6 303 333.3 306.7C366.3 297.8 404 293.1 446.2 293.1C488.6 293.1 526.4 298 559.7 307C571 298.4 627 258.2 681 263.1C683.9 270.8 705.7 321.4 686.5 381.1C718.9 417.9 735.4 463.8 735.4 513.4C735.4 615.6 676.4 701.5 535.4 726.3C547.477 738.177 557.066 752.341 563.608 767.966C570.15 783.59 573.512 800.361 573.5 817.3V929.8C574.3 938.8 573.5 947.7 588.5 947.7C765.6 888 893.1 720.7 893.1 523.6C893.1 276.4 692.7 76.3 445.6 76.3V76.3Z" fill="#786E6E" fill-opacity="0.66"/>
</svg>
