<svg width="27" height="28" viewBox="0 0 27 28" fill="none" xmlns="http://www.w3.org/2000/svg">
<path d="M13.125 0.875C5.87695 0.875 0 6.75195 0 14C0 21.248 5.87695 27.125 13.125 27.125C20.373 27.125 26.25 21.248 26.25 14C26.25 6.75195 20.373 0.875 13.125 0.875ZM18.0176 19.4375C16.8281 20.5332 15.2051 21.1777 13.2686 21.1777C10.4648 21.1777 8.03906 19.5693 6.8584 17.2256C6.37207 16.2559 6.09375 15.1602 6.09375 14C6.09375 12.8398 6.37207 11.7441 6.8584 10.7744C8.03906 8.42773 10.4648 6.81934 13.2686 6.81934C15.2021 6.81934 16.8252 7.53125 18.0703 8.68848L16.0137 10.748C15.2695 10.0361 14.3232 9.67578 13.2715 9.67578C11.4023 9.67578 9.82031 10.9385 9.25488 12.6348C9.11133 13.0654 9.0293 13.5254 9.0293 14C9.0293 14.4746 9.11133 14.9346 9.25488 15.3652C9.82031 17.0615 11.4023 18.3242 13.2686 18.3242C14.2354 18.3242 15.0557 18.0693 15.6973 17.6387C16.459 17.1289 16.9629 16.3701 17.1299 15.4707H13.2686V12.6934H20.0273C20.1123 13.165 20.1562 13.6543 20.1562 14.1611C20.1562 16.3496 19.374 18.1865 18.0176 19.4375Z" fill="white"/>
</svg>
