<svg width="102" height="74" viewBox="0 0 102 74" fill="none" xmlns="http://www.w3.org/2000/svg">
<path d="M25.5 21.5833H46.75C47.8772 21.5833 48.9582 21.9082 49.7552 22.4864C50.5522 23.0647 51 23.8489 51 24.6667C51 25.4844 50.5522 26.2687 49.7552 26.8469C48.9582 27.4251 47.8772 27.75 46.75 27.75H25.5C24.3728 27.75 23.2918 27.4251 22.4948 26.8469C21.6978 26.2687 21.25 25.4844 21.25 24.6667C21.25 23.8489 21.6978 23.0647 22.4948 22.4864C23.2918 21.9082 24.3728 21.5833 25.5 21.5833V21.5833ZM55.25 46.25H76.5C77.6272 46.25 78.7082 46.5748 79.5052 47.1531C80.3022 47.7313 80.75 48.5156 80.75 49.3333C80.75 50.1511 80.3022 50.9353 79.5052 51.5136C78.7082 52.0918 77.6272 52.4167 76.5 52.4167H55.25C54.1228 52.4167 53.0418 52.0918 52.2448 51.5136C51.4478 50.9353 51 50.1511 51 49.3333C51 48.5156 51.4478 47.7313 52.2448 47.1531C53.0418 46.5748 54.1228 46.25 55.25 46.25ZM25.5 33.9167H76.5C77.6272 33.9167 78.7082 34.2415 79.5052 34.8198C80.3022 35.398 80.75 36.1822 80.75 37C80.75 37.8177 80.3022 38.602 79.5052 39.1802C78.7082 39.7585 77.6272 40.0833 76.5 40.0833H25.5C24.3728 40.0833 23.2918 39.7585 22.4948 39.1802C21.6978 38.602 21.25 37.8177 21.25 37C21.25 36.1822 21.6978 35.398 22.4948 34.8198C23.2918 34.2415 24.3728 33.9167 25.5 33.9167V33.9167Z" fill="#7EBAFB"/>
</svg>
