<svg width="600" height="600" viewBox="0 0 600 600" fill="none" xmlns="http://www.w3.org/2000/svg">
<path d="M75.7001 351.5L87.7001 273.6C88.6001 265.2 95.8001 258.8 104.2 258.8H106.4C116 258.8 123.6 266.9 123 276.5L114 331.5C113.9 333.7 115.6 335.6 117.8 335.6H146.8C150 335.6 152.5 333.1 152.6 329.9L157.1 274.9C157.2 265.8 164.6 258.5 173.7 258.5H178.4C187.4 258.5 191 265.7 191.2 274.7L195.9 463.6C196 467.8 192.6 471.3 188.3 471.3H161.3C157.2 471.3 153.8 468 153.7 463.8L152.4 371.5H93.4001C82.9001 371.4 74.6001 362.1 75.7001 351.5Z" fill="#98C9FF"/>
<path d="M87.7001 351.5L96.3001 273.6C97.2001 265.2 104.4 258.8 112.8 258.8C122.4 258.8 130 266.9 129.4 276.5L126 331.5C125.9 333.7 127.6 335.6 129.8 335.6H158.8C162 335.6 164.5 333.1 164.6 329.9L165.3 274.9C165.4 265.8 172.8 258.5 181.9 258.5H186.6C195.6 258.5 203 265.7 203.2 274.7L207.9 463.6C208 467.8 204.6 471.3 200.3 471.3H173.3C169.2 471.3 165.8 468 165.7 463.8L164.4 371.5H105.4C94.9001 371.4 86.6001 362.1 87.7001 351.5Z" fill="#7EBAFB"/>
<path d="M389.3 351.5L401.3 273.6C402.2 265.2 409.4 258.8 417.8 258.8H420C429.6 258.8 437.2 266.9 436.6 276.5L427.6 331.5C427.5 333.7 429.2 335.6 431.4 335.6H460.4C463.6 335.6 466.1 333.1 466.2 329.9L470.7 274.9C470.8 265.8 478.2 258.5 487.3 258.5H492C501 258.5 504.6 265.7 504.8 274.7L509.5 463.6C509.6 467.8 506.2 471.3 501.9 471.3H474.9C470.8 471.3 467.4 468 467.3 463.8L466 371.5H407C396.5 371.4 388.1 362.1 389.3 351.5Z" fill="#98C9FF"/>
<path d="M401.3 351.5L409.9 273.6C410.8 265.2 418 258.8 426.4 258.8C436 258.8 443.6 266.9 443 276.5L439.6 331.5C439.5 333.7 441.2 335.6 443.4 335.6H472.4C475.6 335.6 478.1 333.1 478.2 329.9L478.9 274.9C479 265.8 486.4 258.5 495.5 258.5H500.2C509.2 258.5 516.6 265.7 516.8 274.7L521.5 463.6C521.6 467.8 518.2 471.3 513.9 471.3H486.9C482.8 471.3 479.4 468 479.3 463.8L478 371.5H419C408.5 371.4 400.1 362.1 401.3 351.5Z" fill="#7EBAFB"/>
<path d="M429.7 461.2C428.6 466.5 423.9 470.2 418.5 470.2H348.3C340.5 470.2 334.9 462.5 337.3 455.4C337.5 454.9 337.7 454.3 338 453.8C338.1 453.6 338.3 453.3 338.4 453.1C343.1 445.3 353.6 450.5 354 450.7C354 450.6 353.8 450.4 353.7 450C352.8 448.1 350.9 442.6 355.6 440.9C361.4 438.8 367 444.9 367 444.9C367 444.9 370.2 426.7 383.6 426.7C397 426.7 392.8 445.2 392.8 445.2C392.8 445.2 400.2 433.6 407.1 437C413.8 440.4 409.1 450.4 409 450.7C409.4 450.4 420 443.2 427.2 451.5C430 454.7 430.3 458.2 429.7 461.2Z" fill="#FEC272"/>
<path d="M417.8 470.2H348.4C340.6 470.2 335 462.5 337.4 455.4C338.2 457.5 339.6 459.9 342.2 462C348.6 467.3 356.2 463.2 356.2 463.2C356.2 463.2 356.7 454 362.2 454C367.7 454 369.1 457.7 369.1 457.7C369.1 457.7 373.9 448.7 380.6 448.5C387.3 448.3 388 457.5 388 457.5C388 457.5 391.5 453.8 394.7 454.7C397.9 455.6 396.8 461.1 396.8 461.1C396.8 461.1 404.2 457.6 411.5 460.6C416.4 462.7 417.5 467.4 417.8 470.2Z" fill="#FF8D76"/>
<path d="M429.7 461.2C428.6 466.5 423.9 470.2 418.5 470.2H417.8C417.8 470.2 429.3 460.7 424.5 453.7C419.7 446.8 405.9 453.9 405.6 454C405.7 453.5 409.3 442 404.7 440.1C400 438.1 391.5 450.5 391.5 450.5C391.5 450.5 392 431.4 382.6 430.4C372.5 429.3 368.6 449.2 368.6 449.2C368.6 449.2 361.8 441.7 357.1 443.3C352.5 444.9 354.3 450.9 354.4 451.2L353.7 450C352.8 448.1 350.9 442.6 355.6 440.9C361.4 438.8 367 444.9 367 444.9C367 444.9 370.2 426.7 383.6 426.7C397 426.7 392.8 445.2 392.8 445.2C392.8 445.2 400.2 433.6 407.1 437C413.8 440.4 409.1 450.4 409 450.7C409.4 450.4 420 443.2 427.2 451.5C430 454.7 430.3 458.2 429.7 461.2Z" fill="#FFD29C"/>
<path d="M227.9 470.2C227.9 470.2 225.7 383.9 225.7 334.3C225.7 284.7 251.6 255.2 303.9 255.2C347 255.2 365.6 266 369.9 336.5C374.2 407 376 470.2 376 470.2H227.9V470.2Z" fill="#E1ECFF"/>
<path d="M253 470.2C253 470.2 251.2 383.9 251.2 334.3C251.2 284.7 273.3 255.2 310.1 255.2C346.9 255.2 370.5 266 374.2 336.5C377.9 407 379.4 470.2 379.4 470.2H253V470.2Z" fill="#CDE0FC"/>
<path d="M293 386.7C284.9 384.4 279.3 402.7 286 407C292.7 411.3 302.6 389.4 293 386.7Z" fill="#E1ECFF"/>
<path d="M355.4 367.4C350 365.9 346.2 378.1 350.7 381C355.2 383.8 361.9 369.2 355.4 367.4Z" fill="#E1ECFF"/>
<path d="M290.3 296.8C284.9 295.3 281.1 307.5 285.6 310.4C290.1 313.2 296.8 298.6 290.3 296.8Z" fill="#E1ECFF"/>
<path d="M318.2 314.5C311.9 313.2 307.6 323.8 312.8 326.3C318 328.8 325.7 316.1 318.2 314.5Z" fill="#E1ECFF"/>
<path d="M342.9 287.3C335.3 285.2 329.9 302.4 336.3 306.5C342.7 310.6 352 289.9 342.9 287.3Z" fill="#E1ECFF"/>
<path d="M345.3 412.7C334.4 409.6 326.8 434.2 335.8 440.1C344.9 445.8 358.3 416.3 345.3 412.7Z" fill="#E1ECFF"/>
<path d="M291 385.5C282.9 383.2 277.3 401.5 284 405.8C290.7 410.1 300.6 388.2 291 385.5Z" fill="#99ADF9"/>
<path d="M353.4 366.1C348 364.6 344.2 376.8 348.7 379.7C353.2 382.6 359.9 367.9 353.4 366.1Z" fill="#99ADF9"/>
<path d="M288.3 295.5C282.9 294 279.1 306.2 283.6 309.1C288.1 312 294.8 297.3 288.3 295.5Z" fill="#99ADF9"/>
<path d="M316.2 313.2C309.9 311.9 305.6 322.5 310.8 325C316 327.5 323.7 314.8 316.2 313.2Z" fill="#99ADF9"/>
<path d="M340.9 286.1C333.3 284 327.9 301.2 334.3 305.3C340.7 309.4 350 288.6 340.9 286.1Z" fill="#99ADF9"/>
<path d="M343.3 411.4C332.4 408.3 324.8 432.9 333.8 438.8C342.9 444.6 356.3 415.1 343.3 411.4Z" fill="#99ADF9"/>
<path d="M256.4 302.6C248.3 300.2 242.7 319.9 249.4 324.5C256.1 329.1 266.1 305.5 256.4 302.6Z" fill="#CDE0FC"/>
<path d="M241.5 361.6C234.9 359.6 230.3 375.7 235.8 379.5C241.2 383.3 249.4 364 241.5 361.6Z" fill="#CDE0FC"/>
<path d="M267.8 268.1C261.2 266.1 256.6 282.2 262.1 286C267.6 289.8 275.7 270.5 267.8 268.1Z" fill="#CDE0FC"/>
<path d="M292 365H283.7C283.2 365 283 364.6 282.8 364.1L277.2 353.3L276.9 353.1C276.5 353.1 275 353.1 274.6 353.1V364.1C274.6 364.6 274.2 365 273.7 365H266.4C265.9 365 265.5 364.6 265.5 364.1V334.7C265.5 332.5 266.2 332 268.1 331.7C269.9 331.4 274.4 331.1 277.6 331.1C286 331.1 291.7 333.8 291.7 342V342.7C291.7 347.5 289 350.4 286.2 351.6L292.7 363.8C292.8 364 292.8 364.2 292.8 364.3C292.7 364.7 292.4 365 292 365ZM282.5 342C282.5 339.9 281 338.8 278 338.8C277.7 338.8 274.8 338.9 274.5 338.9V346.1C274.7 346.1 277.5 346.1 277.8 346.1C281.3 346.1 282.5 344.9 282.5 342.8V342Z" fill="#99ADF9"/>
<path d="M301 365H300.6C298.4 365 296.6 363.2 296.6 361C296.6 358.8 298.4 357 300.6 357H301C303.2 357 305 358.8 305 361C305.1 363.2 303.3 365 301 365Z" fill="#99ADF9"/>
<path d="M318.6 365H311.2C310.7 365 310.3 364.6 310.3 364.1V332.4C310.3 331.9 310.7 331.5 311.2 331.5H318.6C319.1 331.5 319.5 331.9 319.5 332.4V364.1C319.5 364.6 319.1 365 318.6 365Z" fill="#99ADF9"/>
<path d="M329.2 365H328.8C326.6 365 324.7 363.2 324.7 360.9C324.7 358.7 326.5 356.9 328.7 356.9H329.1C331.3 356.9 333.2 358.7 333.2 361C333.2 363.2 331.4 365 329.2 365Z" fill="#99ADF9"/>
<path d="M350.7 354.1C349.7 354.1 348.7 354 347.5 354V364.1C347.5 364.6 347.1 365 346.6 365H339.4C338.9 365 338.5 364.7 338.5 364.2V334.7C338.5 332.5 339.2 332 341.1 331.7C343.4 331.3 347.4 331.1 350.6 331.1C357.3 331.1 364.6 333.4 364.6 342.4V342.8C364.6 351.6 357.2 354.1 350.7 354.1ZM355.5 342.4C355.5 339.8 353.7 338.8 350.7 338.8C350.4 338.8 347.8 338.8 347.5 338.8V346.5C347.7 346.5 350.4 346.5 350.7 346.5C353.9 346.5 355.5 345.3 355.5 342.8V342.4Z" fill="#99ADF9"/>
<path d="M317.1 457.1C315.4 465.5 307.8 471.4 299.2 471.4H187.2C174.7 471.4 165.8 459.1 169.6 447.8C169.9 446.9 170.2 446.1 170.7 445.2C170.9 444.8 171.1 444.4 171.4 444C178.9 431.6 195.6 439.9 196.3 440.2C196.3 440.1 196.1 439.7 195.8 439.1C194.4 436.1 191.3 427.3 198.9 424.6C208.2 421.2 217 430.9 217 430.9C217 430.9 222.1 401.8 243.6 401.8C265.1 401.8 258.4 431.3 258.4 431.3C258.4 431.3 270.2 412.7 281.2 418.2C292 423.6 284.4 439.5 284.2 440.1C284.9 439.6 301.7 428.2 313.3 441.4C317.5 446.6 318.1 452.1 317.1 457.1Z" fill="#FEC272"/>
<path d="M298.1 471.4H187.2C174.7 471.4 165.8 459.1 169.6 447.8C170.9 451.2 173.2 455 177.2 458.4C187.5 466.9 199.6 460.2 199.6 460.2C199.6 460.2 200.3 445.5 209.2 445.5C218 445.5 220.2 451.4 220.2 451.4C220.2 451.4 227.9 437.1 238.6 436.7C249.3 436.3 250.4 451 250.4 451C250.4 451 255.9 445.1 261.1 446.6C266.2 448.1 264.4 456.9 264.4 456.9C264.4 456.9 276.2 451.4 287.9 456.2C295.9 459.4 297.7 466.9 298.1 471.4Z" fill="#FF8D76"/>
<path d="M317.1 457.1C315.4 465.5 307.8 471.4 299.2 471.4H298C298 471.4 316.4 456.3 308.7 445.1C301.1 434 279 445.4 278.6 445.6C278.8 444.9 284.5 426.5 277.1 423.4C269.6 420.3 256 439.9 256 439.9C256 439.9 256.7 409.4 241.8 407.7C225.7 405.9 219.4 437.7 219.4 437.7C219.4 437.7 208.6 425.8 201 428.3C193.7 430.8 196.6 440.4 196.8 441L195.6 439.1C194.2 436.1 191.1 427.3 198.7 424.6C208 421.2 216.8 430.9 216.8 430.9C216.8 430.9 221.9 401.8 243.4 401.8C264.9 401.8 258.2 431.3 258.2 431.3C258.2 431.3 270 412.7 281 418.2C291.8 423.6 284.2 439.5 284 440.1C284.7 439.6 301.5 428.2 313.1 441.4C317.5 446.6 318.1 452.1 317.1 457.1Z" fill="#FFD29C"/>
<path d="M425.5 207.6C424.1 210.8 422.7 213.8 421.3 216.6C409.6 239.2 396 247.2 390.6 246.1C384.6 244.8 387.5 238.6 383.4 236C379.2 233.4 367.7 243 360.1 238.2C352.6 233.4 355.3 225.5 348 224.9C340.8 224.2 333 227.1 325.5 222.8C318 218.5 320.8 215.1 334.9 204C349.1 192.9 357.2 174.7 360.9 154.8C363.8 139.2 370.4 130.5 379.2 127.1C388.1 123.7 399.3 125.9 411 132.1C434.2 144.4 438 178.1 425.5 207.6Z" fill="#FB7E7E"/>
<path d="M421.3 216.5C409.6 239.1 396 247.1 390.6 246C384.6 244.7 387.5 238.5 383.4 235.9C379.2 233.3 367.7 242.9 360.1 238.1C352.6 233.3 355.3 225.4 348 224.8C340.8 224.1 333 227 325.5 222.7C318 218.4 320.8 215 334.9 203.9C349.1 192.8 357.2 174.6 360.9 154.7C363.8 139.1 370.4 130.4 379.2 127C377 131.7 372.5 142.5 368.2 159.2C362.8 179.8 360.7 191.3 364 201.9C367.3 212.5 374.2 214.8 384.3 212.1C394.4 209.4 390.3 222.7 403.3 222.6C409.7 222.6 416.3 219.6 421.3 216.5Z" fill="#FE8E8E"/>
<path d="M374.3 193C373.9 193.1 360.9 196.2 352.3 196.8C343.7 197.4 332.7 196.9 329.3 191.2C327.7 188.5 327.9 186.8 329.7 185.3C331.8 183.6 336.1 182.3 342.4 180.5C354.3 177.1 367.9 170.2 367.9 170.2C386.4 174.8 374.3 193 374.3 193Z" fill="#FB7E7E"/>
<path d="M374.3 193C373.9 193.1 360.9 196.2 352.3 196.8C343.7 197.4 332.7 196.9 329.3 191.2C327.7 188.5 327.9 186.8 329.7 185.3C331.6 187 334.7 188.8 339.6 190.3C353.3 194.5 374.3 193 374.3 193Z" fill="#FE8E8E"/>
<path d="M350.3 198.4C346.8 198.4 343.2 198.3 339.9 197.9C329.7 196.9 327.3 191 326.8 189.5C326.4 188.9 326.2 188.1 326.4 187.2C326.9 185 329.6 183.1 334.5 181.4C343.9 178.1 350.1 175.8 357.7 172.7C365.8 169.3 368.3 169.4 368.7 169.5C369.5 169.6 370.1 170.3 370 171.2C369.9 172 369.2 172.6 368.3 172.5C368.3 172.5 366.1 172.5 358.8 175.5C351.2 178.7 344.9 180.9 335.5 184.3C329.7 186.3 329.3 187.9 329.3 188C329.5 188.2 329.6 188.4 329.6 188.6C329.6 188.8 331 194.1 340.1 195C350.5 196 363.3 195.3 369.3 193.5C374.7 191.8 376.1 188.9 376.9 183.6C377 182.8 377.8 182.2 378.6 182.3C379.4 182.4 380 183.2 379.9 184C379 190.1 377 194.2 370.2 196.4C365.9 197.6 358.2 198.4 350.3 198.4Z" fill="#FF9898"/>
<path d="M391.6 247.2C391 247.2 390.3 247.1 389.8 246.9C386.6 245.8 385.8 244 384.9 240.3C384.7 239.4 384.1 237.8 382.7 237.1C381.4 236.5 379.6 236.7 377.5 237.7C370.2 241.1 363.8 241.5 358.5 238.7C355 236.9 353.7 233.3 352.7 230.5C351.9 228.4 351.2 226.5 350 226.2C348.3 225.7 345.4 226 342.4 226.2C338.3 226.5 333.7 226.9 329.5 226C323.5 224.8 321.5 222.3 320.8 220.4C320.2 218.9 320.1 216.5 322.5 213.4C326.2 208.7 341.2 195.9 341.9 195.4C342.5 194.9 343.5 194.9 344 195.6C344.5 196.2 344.5 197.2 343.8 197.7C343.6 197.8 328.4 210.8 324.8 215.3C323.9 216.4 323 218 323.6 219.4C324.2 221 326.6 222.4 330.1 223.1C334 223.9 338.3 223.5 342.2 223.2C345.7 222.9 348.7 222.7 350.9 223.3C353.6 224.1 354.6 226.8 355.6 229.5C356.6 232.1 357.6 234.8 360 236.1C364.4 238.4 369.9 238.1 376.3 235.1C380.1 233.3 382.6 233.8 384.1 234.5C386 235.4 387.3 237.3 387.9 239.8C388.7 243.3 389.2 243.7 390.9 244.2C392.6 244.8 396.1 242.1 397.6 241.2C398.3 240.8 399.2 241 399.7 241.7C400.1 242.4 399.9 243.3 399.2 243.8C398.5 243.9 394.9 247.2 391.6 247.2Z" fill="#FF9898"/>
<path d="M356 176.3C355.8 176.3 355.7 176.3 355.5 176.2C354.7 175.9 354.3 175.1 354.5 174.3C354.5 174.2 357 166.5 358.5 159C359.8 152.5 362.5 140.8 366.8 135C371.9 128 381.7 126.2 382.1 126.1C382.9 125.9 383.7 126.3 384 127.1C384.2 127.9 383.8 128.7 383 129C382.9 129 373.7 130.7 369.2 136.8C365.1 142.3 362.4 154.6 361.5 159.6C360 167.3 357.5 175.2 357.5 175.3C357.2 175.8 356.6 176.3 356 176.3Z" fill="#FF9898"/>
<path d="M413.2 199.3C412.8 200.1 412.2 200.9 411.5 201.6C406 207.8 396.6 211 393.8 207C392.2 204.7 391.9 202.3 392.6 199.9C394.3 193.3 402.8 187.2 408.1 187.3C414.4 187.3 416.5 193.5 413.2 199.3Z" fill="#1C3177"/>
<path d="M413.2 199.3C412.8 200.1 412.2 200.9 411.5 201.6C406 207.8 396.6 211 393.8 207C392.2 204.7 391.9 202.3 392.6 199.9C397.7 196.4 411.9 196.2 413.2 199.3Z" fill="#FF2525"/>
<path d="M422.7 156.6C418.3 156.6 414 165.3 417.7 171.1C421.4 176.9 427.5 173.5 428.8 168.5C430.3 162.5 428.9 156.5 422.7 156.6Z" fill="white"/>
<path d="M420.4 164.2C417.8 163.9 415.2 168 417.3 171.2C419.4 174.4 423 173.1 423.8 170.6C424.8 167.7 424.1 164.5 420.4 164.2Z" fill="#1C3177"/>
<path d="M399.4 152C394.7 151.4 388.6 159.9 391.7 166.8C394.8 173.7 401.8 170.9 404 165.8C406.7 159.6 406.2 152.9 399.4 152Z" fill="white"/>
<path d="M394.1 159.9C391.5 159.6 388.9 163.7 391 166.9C393.1 170.1 396.7 168.8 397.5 166.3C398.5 163.4 397.8 160.3 394.1 159.9Z" fill="#1C3177"/>
</svg>
